<svg width="20" height="20" viewBox="0 0 20 20" fill="none" xmlns="http://www.w3.org/2000/svg">
<path d="M1.875 14.375V12.5859C1.875 8.09375 5.48437 4.39062 9.96875 4.375C11.0384 4.37089 12.0983 4.57801 13.0877 4.98449C14.077 5.39096 14.9764 5.9888 15.7342 6.74368C16.492 7.49857 17.0933 8.39565 17.5035 9.38346C17.9138 10.3713 18.125 11.4304 18.125 12.5V14.375C18.125 14.5408 18.0592 14.6997 17.9419 14.8169C17.8247 14.9342 17.6658 15 17.5 15H2.5C2.33424 15 2.17527 14.9342 2.05806 14.8169C1.94085 14.6997 1.875 14.5408 1.875 14.375Z" stroke="#01BE5E" stroke-width="1.5" stroke-linecap="round" stroke-linejoin="round"/>
<path d="M10 4.375V6.875" stroke="#01BE5E" stroke-width="1.5" stroke-linecap="round" stroke-linejoin="round"/>
<path d="M2.14844 10.3984L4.57031 11.0469" stroke="#01BE5E" stroke-width="1.5" stroke-linecap="round" stroke-linejoin="round"/>
<path d="M17.8516 10.3984L15.4297 11.0469" stroke="#01BE5E" stroke-width="1.5" stroke-linecap="round" stroke-linejoin="round"/>
<path d="M8.07812 15L13.4219 8.03906" stroke="#01BE5E" stroke-width="1.5" stroke-linecap="round" stroke-linejoin="round"/>
</svg>
